<?xml version="1.0" encoding="UTF-8"?>
<svg id="Calque_1" data-name="Calque 1" xmlns="http://www.w3.org/2000/svg" viewBox="0 0 195.82 79.9">
  <defs>
    <style>
      .cls-1 {
        fill: #fff;
      }
    </style>
  </defs>
  <path d="m181.13,38.42c.88-5.75,1.35-11.62,2.92-17.17.41-1.42,4.83-3.08,6.47-2.39,1.59.67,3.43,5.19,2.66,6.33-4.57,6.76-1.11,12.16,1.47,18.25,2.99,7.05-.03,14.54-6.22,18.25-6.44,3.85-14.02,2.61-19.42-3.16-.32-.34-.73-.6-1.1-.9-7.92,7.57-10.68,8.02-16.87,2.85-9.3,4.69-11.82,4.59-17.34-.7-.31.06-.72.01-.91.2-3.34,3.25-7.21,5.51-11.58,2.68-4.4-2.85-3.65-7.48-2.33-11.77,1.52-4.93,3.54-9.71,4.76-14.7.47-1.93-.64-4.25-1.03-6.39-2.16.85-5.35,1.07-6.31,2.65-3.76,6.21-6.84,12.83-10.1,19.33-.67,1.33-1.05,2.8-1.55,4.22-2.33,6.63-7.92,9.58-14.52,7.47-3.78-1.2-5.56-4.44-4.59-7.84,2.81-9.89,6.18-19.63,9.56-29.35.3-.87,2.3-1.14,3.51-1.69.32,1.31,1.21,2.81.85,3.9-2.24,6.97-4.99,13.78-7.07,20.79-.81,2.72-.3,5.82-.39,8.75,2.43-1.92,5.85-3.34,7.09-5.85,3.67-7.43,6.56-15.26,9.58-23,1.22-3.13,2.03-6.18,6.57-4.28,1,.42,2.53-.46,3.83-.68,6.79-1.15,11.12,2.18,10.23,8.95-.75,5.68-3.24,11.12-4.49,16.77-.57,2.6,0,5.44.04,8.18,2.18-1.78,5.22-3.12,6.37-5.42,3.72-7.41,6.74-15.17,10.03-22.8.53-1.22.76-2.7,1.61-3.61.86-.92,2.32-1.28,3.51-1.88.37,1.29,1.36,2.77,1.02,3.83-1.58,4.9-3.56,9.68-5.35,14.52-1.15,3.12-2.59,6.21-3.16,9.44-.32,1.79.33,4.89,1.53,5.52,1.4.74,4.53.09,5.76-1.12,2.3-2.27,4.21-5.19,5.51-8.17,2.92-6.71,5.24-13.68,8.1-20.41.64-1.51,2.53-2.49,3.85-3.72.33,1.85,1.36,3.92.87,5.52-2.29,7.47-5.14,14.77-7.44,22.23-.54,1.76.28,3.95.47,5.94,1.76-1,4.02-1.61,5.16-3.08,2.01-2.6,3.53-5.64,4.89-8.66,2.68-5.95,7.15-8.51,13.57-7.86,1.94,2.17,4.21,4.15,5.64,6.61.56.97-.76,3.03-1.22,4.59-1.18-.84-2.95-1.43-3.45-2.57-1.63-3.76-4.04-4.19-7.09-2.13-3.97,2.69-3.77,10.03.42,12.32,3.96,2.17,8.13,1.9,11.59-1.08,3.95-3.39,3.73-7.81,2.15-12.32-1.34-3.82-3.15-6.95-8.08-5.38Z"/>
  <path d="m41.45,10.74c11.95-12.08,19.65-11.02,24.77-1.27,2.74-1.8,5.32-3.94,8.25-5.33,9.79-4.65,17.86.62,17.08,11.32-.32,4.41-1.61,8.82-3.01,13.05-3.88,11.68-8.24,23.21-12.04,34.92-1.55,4.76-3.84,10.39,4.19,12.24.53.12,1.28,1.9,1.01,2.36-.49.84-1.63,1.66-2.59,1.8-4.33.63-8.95-3.23-9.02-8.04-.05-3.42.56-7,1.63-10.25,3.7-11.22,7.78-22.31,11.59-33.5,1.28-3.77,2.7-7.61,3.11-11.52.26-2.49-.46-6.37-2.14-7.44-1.99-1.28-5.98-1.16-8.23.02-5.7,2.98-9.9,7.66-11.94,14.08-3.47,10.94-7.14,21.83-10.75,32.73-.58,1.74-1.02,3.61-2.01,5.08-.68,1.01-2.22,1.43-3.37,2.12-.47-1.26-1.56-2.68-1.29-3.75.99-3.86,2.48-7.58,3.73-11.38,2.9-8.85,5.82-17.7,8.62-26.59.75-2.37,1.56-4.89,1.46-7.3-.09-2.11-.88-5.13-2.36-5.98-1.51-.86-4.84-.3-6.36.91-7.48,5.97-13.81,13.07-17.26,22.16-2.95,7.77-5.34,15.76-8.18,23.57-.84,2.31-2.09,4.58-3.62,6.5-2.13,2.68-5.47,4.34-8.27,2.04-1.71-1.4-2.99-5.19-2.34-7.22,1.43-4.5,3.8-8.86,6.52-12.77,6.37-9.16,13.36-17.92,15.95-29.13.29-1.24.65-2.46,1.09-4.11-4.9,2.53-9.06,5.61-13.72,6.83-4.6,1.21-9.85,1.35-14.54.46C2.59,16.45-.76,10.37.15,6.17c.26-1.17,1.68-2.09,2.57-3.13.87.84,2.19,1.53,2.55,2.55,2.7,7.79,6.01,9.87,13.7,6.66,5.92-2.47,11.22-6.4,16.89-9.52,2.05-1.13,4.35-1.82,6.53-2.72,0,2.46.06,4.92-.02,7.38-.02.78-.41,1.55-.92,3.36Zm-17.68,36.41c-.41-.2-.82-.39-1.23-.59-1.87,3.43-3.74,6.86-5.61,10.29.71.34,1.42.67,2.13,1.01,1.57-3.57,3.15-7.14,4.72-10.71Z"/>
  <path d="m101.04,23.03c-1.76-2.3-3.63-3.69-3.52-4.89.12-1.29,2.07-3.26,3.3-3.32,1.12-.06,3.11,1.94,3.3,3.24.18,1.18-1.55,2.64-3.09,4.97Z"/>
  <path class="cls-1" d="m181.13,38.42c4.93-1.57,6.74,1.55,8.08,5.38,1.58,4.51,1.81,8.93-2.15,12.32-3.47,2.98-7.63,3.25-11.59,1.08-4.19-2.29-4.39-9.64-.42-12.32,3.05-2.06,5.46-1.64,7.09,2.13.49,1.14,2.26,1.73,3.45,2.57.46-1.56,1.78-3.62,1.22-4.59-1.43-2.46-3.71-4.44-5.64-6.61,0,0-.04.05-.04.05Z"/>
  <path class="cls-1" d="m23.77,47.15c-1.57,3.57-3.15,7.14-4.72,10.71-.71-.34-1.42-.67-2.13-1.01,1.87-3.43,3.74-6.86,5.61-10.29.41.2.82.39,1.23.59Z"/>
</svg>